<svg width="16" height="18" viewBox="0 0 16 18" fill="none" xmlns="http://www.w3.org/2000/svg">
<path d="M2 18C1.43333 18 0.958333 17.8083 0.575 17.425C0.191666 17.0417 0 16.5667 0 16V14H3V0.375L4.275 1.275L5.575 0.375L6.875 1.275L8.2 0.375L9.5 1.275L10.8 0.375L12.125 1.275L13.425 0.375L14.725 1.275L16 0.375V16C16 16.5667 15.8083 17.0417 15.425 17.425C15.0417 17.8083 14.5667 18 14 18H2ZM14 17C14.2833 17 14.5207 16.904 14.712 16.712C14.904 16.5207 15 16.2833 15 16V2H4V14H13V16C13 16.2833 13.096 16.5207 13.288 16.712C13.4793 16.904 13.7167 17 14 17ZM5.375 5.5V4.5H10.725V5.5H5.375ZM5.375 8.5V7.5H10.725V8.5H5.375ZM12.875 5.775C12.675 5.775 12.5 5.69567 12.35 5.537C12.2 5.379 12.125 5.2 12.125 5C12.125 4.8 12.2 4.62067 12.35 4.462C12.5 4.304 12.675 4.225 12.875 4.225C13.0917 4.225 13.275 4.304 13.425 4.462C13.575 4.62067 13.65 4.8 13.65 5C13.65 5.2 13.575 5.379 13.425 5.537C13.275 5.69567 13.0917 5.775 12.875 5.775ZM12.875 8.775C12.675 8.775 12.5 8.69567 12.35 8.537C12.2 8.379 12.125 8.2 12.125 8C12.125 7.8 12.2 7.62067 12.35 7.462C12.5 7.304 12.675 7.225 12.875 7.225C13.0917 7.225 13.275 7.304 13.425 7.462C13.575 7.62067 13.65 7.8 13.65 8C13.65 8.2 13.575 8.379 13.425 8.537C13.275 8.69567 13.0917 8.775 12.875 8.775Z" fill="url(#paint0_linear_12771_634)"/>
<defs>
<linearGradient id="paint0_linear_12771_634" x1="0.8" y1="0.375" x2="16.2687" y2="16.5158" gradientUnits="userSpaceOnUse">
<stop stop-color="#5C6670"/>
<stop offset="1" stop-color="#131316"/>
</linearGradient>
</defs>
</svg>
